<?xml version="1.0" encoding="utf-8"?>
<!-- Generator: Adobe Illustrator 15.0.0, SVG Export Plug-In  -->
<!DOCTYPE svg PUBLIC "-//W3C//DTD SVG 1.0//EN" "http://www.w3.org/TR/2001/REC-SVG-20010904/DTD/svg10.dtd" [
	<!ENTITY ns_flows "http://ns.adobe.com/Flows/1.0/">
]>
<svg version="1.0"
	 xmlns="http://www.w3.org/2000/svg" xmlns:xlink="http://www.w3.org/1999/xlink" xmlns:a="http://ns.adobe.com/AdobeSVGViewerExtensions/3.0/"
	 x="0px" y="0px" width="80px" height="80px" viewBox="0.05 -0.075 80 80"
	 overflow="visible" enable-background="new 0.05 -0.075 80 80" xml:space="preserve">
<defs>
</defs>
<circle fill="none" stroke="#333332" stroke-width="3" cx="39.925" cy="39.925" r="38.425"/>
<rect fill="none" width="79.85" height="79.85"/>
<polyline fill="none" stroke="#333332" stroke-width="4" stroke-linejoin="round" stroke-miterlimit="10" points="62.121,31.732 
	62.121,23.372 59.572,26.521 "/>
<path fill="none" stroke="#333332" stroke-width="4" stroke-miterlimit="10" d="M17.23,44.615c0.631-0.766,4.511-7.198,10.152-8.902
	c5.643-1.704,9.605-0.266,11.008,5.266s-0.564,13.702-6.426,14.666s-7.045-4.89-5.484-8.373c1.562-3.482,4.615-4.228,7.962-3.854
	c2.341,0.26,4.782,2.372,7.553,1.253s2.753-4.586,2.753-4.586l6.487-2.048c0,3.93,1.292,9.755,5.243,11.334
	c3.953,1.577,5.685-1.687,5.685-3.83 M19.034,26.49c-0.458,7.256,0.502,22.597,1.991,31.188"/>
<rect fill="none" width="79.85" height="79.85"/>
</svg>
