<?xml version="1.0" encoding="utf-8"?>
<!-- Generator: Adobe Illustrator 14.0.0, SVG Export Plug-In  -->
<!DOCTYPE svg PUBLIC "-//W3C//DTD SVG 1.0//EN" "http://www.w3.org/TR/2001/REC-SVG-20010904/DTD/svg10.dtd" [
	<!ENTITY ns_flows "http://ns.adobe.com/Flows/1.0/">
]>
<svg version="1.0"
	 xmlns="http://www.w3.org/2000/svg" xmlns:xlink="http://www.w3.org/1999/xlink" xmlns:a="http://ns.adobe.com/AdobeSVGViewerExtensions/3.0/"
	 x="0px" y="0px" width="80px" height="80px" viewBox="0 0 80 80" enable-background="new 0 0 80 80" xml:space="preserve">
<defs>
</defs>

<path fill="none" stroke="#333333" stroke-width="4" stroke-miterlimit="10" d="M18.077,23.456
	c-0.486,7.697,0.533,23.974,2.113,33.089"/>

<path fill="none" stroke="#333333" stroke-width="4" stroke-miterlimit="10" d="M16.164,42.686
	c0.669-0.812,4.786-7.638,10.771-9.446c5.985-1.808,10.191-0.281,11.678,5.587c1.488,5.869-0.599,14.537-6.817,15.56
	c-6.219,1.023-7.475-5.188-5.819-8.883c1.656-3.695,4.897-4.486,8.447-4.092c2.484,0.277,5.074,2.518,8.014,1.33
	s2.921-4.865,2.921-4.865l6.882-2.173c0,4.169,1.371,10.35,5.563,12.024c4.193,1.676,6.031-1.789,6.031-4.062"/>

	<path fill="#333333" d="M40,3c20.402,0,37,16.598,37,37c0,20.402-16.598,37-37,37C19.598,77,3,60.402,3,40C3,19.598,19.598,3,40,3
		 M40,0C17.909,0,0,17.909,0,40c0,22.092,17.909,40,40,40c22.092,0,40-17.908,40-40C80,17.909,62.092,0,40,0L40,0z"/>

<path fill="#333333" d="M61.89,27.268c-0.021,0.828-0.046,1.766-0.047,2.513v0.448l3.979,0.001l0.001-0.448
	c0.001-3.261,0.052-5.809,0.071-6.753l0.001-0.061c-0.004-0.833-0.533-1.581-1.316-1.863c-0.155-0.057-0.318-0.092-0.484-0.109
	c-0.652-0.062-1.296,0.202-1.715,0.708l-2.168,2.6l1.711,1.427C61.919,26.134,61.904,26.686,61.89,27.268"/>

</svg>
