<?xml version="1.0" encoding="utf-8"?>
<!-- Generator: Adobe Illustrator 15.0.0, SVG Export Plug-In  -->
<!DOCTYPE svg PUBLIC "-//W3C//DTD SVG 1.0//EN" "http://www.w3.org/TR/2001/REC-SVG-20010904/DTD/svg10.dtd" [
  <!ENTITY ns_flows "http://ns.adobe.com/Flows/1.0/">
]>
<svg version="1.0"
   xmlns="http://www.w3.org/2000/svg" xmlns:xlink="http://www.w3.org/1999/xlink" xmlns:a="http://ns.adobe.com/AdobeSVGViewerExtensions/3.0/"
   x="0px" y="0px" width="128px" height="128px" viewBox="1.429 -20.952 128 128"
   overflow="visible" enable-background="new 1.429 -20.952 128 128" xml:space="preserve">
<defs>
</defs>
<path fill="none" stroke="#000000" stroke-width="10" stroke-miterlimit="10" d="
  M8.803,0.315
  c-1.256,19.882,1.376,61.922,5.457,85.465"/>
<path fill="none" stroke="#000000" stroke-width="10" stroke-miterlimit="10" d="

  M3.862,49.986
  c1.727-2.1,12.36-19.728,27.82-24.397
  c15.461-4.67,26.323-0.727,30.166,14.43
  c3.843,15.157-1.547,37.549-17.608,40.192
  S24.934,66.81,29.21,57.265

  c4.277-9.545,12.648-11.586,21.817-10.564
  c6.415,0.713,13.106,6.498,20.7,3.432
  c7.592-3.066,7.543-12.566,7.543-12.566
  l17.775-5.611

  c0,10.768,3.543,26.732,14.371,31.058
  c10.832,4.326,15.578-4.619,15.578-10.496"/>
</svg>
